<?xml version="1.0" encoding="utf-8"?>
<!-- Generator: Adobe Illustrator 22.1.0, SVG Export Plug-In . SVG Version: 6.00 Build 0)  -->
<svg version="1.1" id="Layer_1" xmlns="http://www.w3.org/2000/svg" xmlns:xlink="http://www.w3.org/1999/xlink" x="0px" y="0px"
	 viewBox="0 0 553 969.5" style="enable-background:new 0 0 553 969.5;" xml:space="preserve">
<style type="text/css">
	.st0{fill:#092646;}
</style>
<g>
	<path class="st0" d="M340.5,320v76.89001c-20.63-4.44-42.03998-6.78003-64-6.78003c-23.03003,0-45.45001,2.57001-67,7.44V320H340.5
		z"/>
	<path class="st0" d="M138.5,320v103.29999c-56.06,28.75-101.98999,74.46002-131,130.35999V320H138.5z"/>
	<path class="st0" d="M543.5,320v229.88c-29.45001-54.84003-75.29999-99.56-131-127.59003V320H543.5z"/>
</g>
<g>
	<path class="st0" d="M280.66669,696.33331c107.29761-119.71478,107.55255-255.66815,107.55316-256.31378
		C354.05377,424.90894,316.26135,416.5,276.5,416.5C123.79327,416.5,0,540.29327,0,693
		c0,51.78198,14.24841,100.22998,39.0177,141.66333C39.57733,834.58636,173.33856,816.08209,280.66669,696.33331z"/>
	<path class="st0" d="M540.82172,611.62653c-0.14111,0.34479-50.33008,122.82831-174.46979,209.02148
		c-123.73767,85.91412-266.91467,83.61389-268.24139,83.5907C146.26355,944.94489,208.5094,969.5,276.5,969.5
		C429.20673,969.5,553,845.70673,553,693C553,664.67792,548.73291,637.35419,540.82172,611.62653z"/>
	<path class="st0" d="M184,837c0,0,99.33331-31.33337,182.66669-126c83.25647-94.57941,101.33453-217.1604,101.3678-217.38641
		c-0.013-0.01251-0.02563-0.02545-0.03864-0.0379l-31.07104-25.75482c-0.07764-0.05536-0.15558-0.11041-0.23328-0.16571
		C436.60516,468.76117,427.87067,578.6283,358,680C287.77509,781.88562,184,837,184,837z"/>
	<path class="st0" d="M268.5,817c0,0,76.5-27,146.5-103c69.70599-75.68079,95.37292-167.4007,95.58734-168.16992
		c-0.03033-0.04816-0.05969-0.09692-0.09009-0.14502l-26.52496-35.42249c-0.02789-0.03162-0.05499-0.06378-0.08289-0.0954
		C483.78699,510.68054,463.62885,611.43939,402.5,694.5C337,783.5,268.5,817,268.5,817z"/>
</g>
<g>
	<path class="st0" d="M39.53687,305.89697c-4.74792,0-9.25234-0.71094-13.51084-2.13184
		c-4.26044-1.4209-8.01646-3.44434-11.26759-6.06836c-3.25306-2.62402-5.83808-5.7666-7.75603-9.42969
		c-1.91892-3.66211-2.87741-7.70801-2.87741-12.13623v-0.16406c0-4.26367,0.92654-8.22656,2.78011-11.88965
		c1.85357-3.66211,4.42213-6.83301,7.70665-9.51221c3.28356-2.67773,7.13688-4.76855,11.56046-6.27295
		c4.42164-1.50293,9.17004-2.25488,14.24278-2.25488c3.77103,0,7.23418,0.36865,10.38945,1.10693
		c3.15382,0.73779,6.01525,1.76318,8.58479,3.07471c2.56856,1.31201,4.84425,2.88428,6.829,4.71533
		c1.9833,1.83203,3.69019,3.84131,5.12163,6.02686l-18.82804,9.26611c-1.30171-2.07715-2.9113-3.75781-4.82876-5.04297
		c-1.9194-1.28369-4.43907-1.92725-7.56046-1.92725c-1.95135,0-3.70713,0.32812-5.26831,0.98438
		c-1.5607,0.65576-2.89435,1.55762-3.99952,2.70557c-1.10662,1.14844-1.96781,2.48828-2.58502,4.01807
		c-0.61915,1.53125-0.92702,3.14453-0.92702,4.83838v0.16357c0,1.85938,0.30788,3.56738,0.92702,5.125
		c0.61721,1.55811,1.49534,2.89844,2.63391,4.01807c1.13712,1.12109,2.48772,1.99609,4.04841,2.62402
		c1.5607,0.62939,3.28307,0.94287,5.17052,0.94287c3.25112,0,5.85308-0.66846,7.80395-2.00879
		c1.95135-1.33887,3.64178-3.0752,5.07322-5.20703l18.82804,8.93799c-1.43144,2.13184-3.12187,4.14111-5.07322,6.02686
		c-1.95087,1.88623-4.2435,3.52637-6.87741,4.92041s-5.62605,2.50098-8.97496,3.3208
		C47.55188,305.48682,43.7639,305.89697,39.53687,305.89697z"/>
	<path class="st0" d="M92.80134,247.26709h33.3637c6.11255,0,11.1364,0.58789,15.07202,1.7627
		c3.93416,1.17627,7.10493,2.77539,9.51181,4.79736c2.0806,1.75,3.64128,3.71826,4.68256,5.90381
		c1.03934,2.18701,1.5607,4.75586,1.5607,7.70801v0.16406c0,4.20996-1.20393,7.76318-3.60934,10.66016
		c-2.40688,2.89795-5.69189,5.19385-9.85309,6.8877l15.90126,19.51611h-26.04674l-12.87717-16.3999h-0.19557h-4.68256v16.3999
		H92.80134V247.26709z M125.48199,274.57275c2.73169,0,4.87766-0.4917,6.43883-1.47559
		c1.56068-0.98438,2.34103-2.3501,2.34103-4.1001v-0.16406c0-1.85791-0.78035-3.23926-2.34103-4.14111
		c-1.56117-0.90186-3.67519-1.35303-6.34105-1.35303h-9.95087v11.23389H125.48199z"/>
	<path class="st0" d="M179.33173,247.26709h22.82756v57.3999h-22.82756V247.26709z"/>
	<path class="st0" d="M260.59381,305.89697c-4.74792,0-9.25235-0.71094-13.51085-2.13184
		c-4.26044-1.4209-8.01646-3.44434-11.26759-6.06836c-3.25305-2.62402-5.83807-5.7666-7.75603-9.42969
		c-1.91891-3.66211-2.8774-7.70801-2.8774-12.13623v-0.16406c0-4.26367,0.92653-8.22656,2.78011-11.88965
		c1.85356-3.66211,4.42212-6.83301,7.70665-9.51221c3.28355-2.67773,7.13687-4.76855,11.56046-6.27295
		c4.42165-1.50293,9.17004-2.25488,14.24277-2.25488c3.77106,0,7.23419,0.36865,10.38947,1.10693
		c3.15381,0.73779,6.01477,1.76318,8.58527,3.07471c2.56857,1.31201,4.84378,2.88428,6.82852,4.71533
		c1.98282,1.83203,3.69067,3.84131,5.12164,6.02686l-18.82806,9.26611c-1.3017-2.07715-2.91129-3.75781-4.82877-5.04297
		c-1.91937-1.28369-4.43906-1.92725-7.56046-1.92725c-1.95132,0-3.70712,0.32812-5.2683,0.98438
		c-1.5607,0.65576-2.89435,1.55762-3.99953,2.70557c-1.10661,1.14844-1.9678,2.48828-2.58501,4.01807
		c-0.61916,1.53125-0.92703,3.14453-0.92703,4.83838v0.16357c0,1.85938,0.30788,3.56738,0.92703,5.125
		c0.6172,1.55811,1.49533,2.89844,2.63391,4.01807c1.13712,1.12109,2.48772,1.99609,4.04842,2.62402
		c1.5607,0.62939,3.28305,0.94287,5.1705,0.94287c3.25113,0,5.85309-0.66846,7.80396-2.00879
		c1.95135-1.33887,3.64178-3.0752,5.07324-5.20703l18.82803,8.93799c-1.43192,2.13184-3.12234,4.14111-5.07321,6.02686
		c-1.95087,1.88623-4.2435,3.52637-6.87692,4.92041c-2.6344,1.39404-5.62607,2.50098-8.97546,3.3208
		C268.60883,305.48682,264.82083,305.89697,260.59381,305.89697z"/>
	<path class="st0" d="M313.8573,247.26709h22.82855v21.48389l19.41281-21.48389h26.5347l-23.80252,24.92773l24.29047,32.47217
		h-27.21725l-13.3656-18.2041l-5.8526,5.98633v12.21777H313.8573V247.26709z"/>
	<path class="st0" d="M401.65601,247.26709h58.24039v15.74414h-35.80203v5.82178h33.36322v13.85791h-33.36322v6.23193h36.29001
		v15.74414h-58.72836V247.26709z"/>
	<path class="st0" d="M500.57608,263.50293h-20.09634v-16.23584H543.5v16.23584h-20.09637v41.16406h-22.82755V263.50293z"/>
</g>
<polygon id="polygon24519" class="st0" points="135.44891,155.99675 71.69299,155.99675 71.69299,230.51225 6.75,230.51225 6.75,0 
	145.57491,0 149.84212,63.02311 72.13191,63.02311 72.13191,93.09193 135.44891,93.09193 "/>
<path id="polygon24520" class="st0" d="M257.91882,3.48094c-60.67578,0-109.84387,50.17572-109.84387,112.06909
	c0,61.90479,49.17188,112.06909,109.84387,112.06909s109.85156-50.16431,109.85156-112.06909
	C367.77039,53.65667,318.5946,3.48094,257.91882,3.48094z M277.67847,161.56163c0,10.49622-9.16797,18.76343-19.44666,18.76343
	c-10.30151,0-18.65271-8.51917-18.65271-19.03827l0.02673-91.80945c0-10.50384,8.32446-19.91229,18.62598-19.91229
	c10.27869,0,19.44666,9.41223,19.44666,19.91229V161.56163z"/>
<polygon id="polygon24521" class="st0" points="402.91934,111.35152 334.80078,230.32524 404.65979,230.30615 437.97672,172.0464 
	471.67914,230.17258 543.5,230.17258 474.10663,110.57291 537.16028,0.31298 467.69058,0.31298 438.85455,49.98873 
	410.52621,0.31298 338.59848,0.31298 "/>
</svg>
